<?xml version="1.0" encoding="UTF-8" standalone="no"?>
<svg
   xmlns:dc="http://purl.org/dc/elements/1.1/"
   xmlns:cc="http://creativecommons.org/ns#"
   xmlns:rdf="http://www.w3.org/1999/02/22-rdf-syntax-ns#"
   xmlns:svg="http://www.w3.org/2000/svg"
   xmlns="http://www.w3.org/2000/svg"
   xmlns:sodipodi="http://sodipodi.sourceforge.net/DTD/sodipodi-0.dtd"
   xmlns:inkscape="http://www.inkscape.org/namespaces/inkscape"
   version="1.1"
   id="svg2"
   width="53.333332"
   height="53.333"
   viewBox="0 0 53.333332 53.333"
   sodipodi:docname="Support_icon.svg"
   inkscape:version="1.0.1 (3bc2e813f5, 2020-09-07)">
  <metadata
     id="metadata8">
    <rdf:RDF>
      <cc:Work
         rdf:about="">
        <dc:format>image/svg+xml</dc:format>
        <dc:type
           rdf:resource="http://purl.org/dc/dcmitype/StillImage" />
        <dc:title />
      </cc:Work>
    </rdf:RDF>
  </metadata>
  <defs
     id="defs6" />
  <sodipodi:namedview
     pagecolor="#ffffff"
     bordercolor="#666666"
     borderopacity="1"
     objecttolerance="10"
     gridtolerance="10"
     guidetolerance="10"
     inkscape:pageopacity="0"
     inkscape:pageshadow="2"
     inkscape:window-width="960"
     inkscape:window-height="526"
     id="namedview4"
     showgrid="false"
     inkscape:zoom="2.9863977"
     inkscape:cx="-0.55629026"
     inkscape:cy="24.005043"
     inkscape:window-x="0"
     inkscape:window-y="854"
     inkscape:window-maximized="0"
     inkscape:current-layer="g10"
     inkscape:document-rotation="0" />
  <g
     inkscape:groupmode="layer"
     inkscape:label="Image"
     id="g10">
    <path
       style="fill:#ffffff;stroke-width:1.33333"
       d="m 24.22097,21.333167 h 2.495764 2.495764 c 1.651663,16.548532 3.425467,16.879118 4.120799,25.333333 H 26.485434 19.637536 C 20.68881,38.142966 22.269229,38.190236 24.22097,21.333167 Z M 14.225682,30.339579 10.451365,29.039177 11.188888,26.100651 16.292741,20.83811 5.9632057,20.264975 C 2.3224545,20.062968 -1.6411621e-7,16.760027 -1.6411621e-7,16.017163 V 14.6665 H 9.1266829 18.253366 l 2.293644,2.534449 2.293645,2.534449 -1.456561,5.409255 c -1.744557,6.478794 -2.287812,6.873038 -7.158412,5.194926 z M 33.526028,29.594264 C 32.889599,28.35066 31.956746,25.612611 31.453021,23.509708 l -0.915866,-3.823459 2.271406,-2.509875 2.271405,-2.509874 h 9.126684 9.126682 v 1.350663 c 0,0.742864 -2.683443,2.654379 -5.963205,4.247812 l -10.540804,0.502672 5.310281,5.313684 0.732686,2.919248 -4.09456,1.42737 -4.09456,1.427372 z M 22.118525,14.5642 C 20.220002,12.307935 18.666666,9.6079353 18.666666,8.5642003 v -1.8977 h 8 8 v 1.8977 c 0,2.1354877 -6.308909,10.1022997 -8,10.1022997 -0.602956,0 -2.64962,-1.846035 -4.548141,-4.1023 z"
       id="path14"
       sodipodi:nodetypes="cccccccscccsscccccsssscccccsscccccssscccsss" />
  </g>
</svg>
