<?xml version="1.0" encoding="UTF-8" standalone="no"?>
<svg
   xmlns:dc="http://purl.org/dc/elements/1.1/"
   xmlns:cc="http://creativecommons.org/ns#"
   xmlns:rdf="http://www.w3.org/1999/02/22-rdf-syntax-ns#"
   xmlns:svg="http://www.w3.org/2000/svg"
   xmlns="http://www.w3.org/2000/svg"
   xmlns:sodipodi="http://sodipodi.sourceforge.net/DTD/sodipodi-0.dtd"
   xmlns:inkscape="http://www.inkscape.org/namespaces/inkscape"
   version="1.1"
   id="Layer_1"
   x="0px"
   y="0px"
   viewBox="0 0 60.963 60.842"
   style="enable-background:new 0 0 60.963 60.842;"
   xml:space="preserve"
   sodipodi:docname="close_white.svg"
   inkscape:version="1.0.1 (3bc2e813f5, 2020-09-07)"><metadata
   id="metadata9"><rdf:RDF><cc:Work
       rdf:about=""><dc:format>image/svg+xml</dc:format><dc:type
         rdf:resource="http://purl.org/dc/dcmitype/StillImage" /><dc:title></dc:title></cc:Work></rdf:RDF></metadata><defs
   id="defs7" /><sodipodi:namedview
   pagecolor="#ffffff"
   bordercolor="#666666"
   borderopacity="1"
   objecttolerance="10"
   gridtolerance="10"
   guidetolerance="10"
   inkscape:pageopacity="0"
   inkscape:pageshadow="2"
   inkscape:window-width="1536"
   inkscape:window-height="1053"
   id="namedview5"
   showgrid="false"
   showguides="true"
   inkscape:guide-bbox="true"
   inkscape:zoom="14.167845"
   inkscape:cx="30.481501"
   inkscape:cy="19.633169"
   inkscape:window-x="384"
   inkscape:window-y="27"
   inkscape:window-maximized="0"
   inkscape:current-layer="Layer_1" />
<path
   style="fill:#ffffff;stroke-width:0.968869"
   d="M 58.688493,52.16279 36.887966,30.361293 58.570291,8.6789675 c 1.768187,-1.7691553 1.768187,-4.6370083 0,-6.4051948 -1.769155,-1.76818631 -4.636039,-1.76818631 -6.405194,0 L 30.482771,23.956098 8.8014156,2.2737727 c -1.7691553,-1.76818631 -4.6360395,-1.76818631 -6.4051948,0 -1.76915526,1.7691553 -1.76915526,4.6370084 0,6.4051948 L 24.077577,30.361293 2.2751122,52.16279 c -1.76915527,1.769154 -1.76915527,4.636039 0,6.405194 0.8845776,0.884578 2.0433453,1.326382 3.2030818,1.326382 1.1597365,0 2.3185042,-0.441804 3.2030818,-1.326382 L 30.482771,36.766488 52.283299,58.567984 c 0.884578,0.884578 2.043345,1.326382 3.203082,1.326382 1.159736,0 2.318504,-0.441804 3.203082,-1.326382 1.767218,-1.768186 1.767218,-4.63604 -9.7e-4,-6.405194 z"
   id="path2" />
</svg>
